# xmcd
#
# Track frame offsets: 
#        183
#        28055
#        76840
#        101655
#        123845
#        146895
#        170233
#        179498
#        203955
#        229028
#        268188
#
# Disc length: 3862 seconds
#
# Revision: 5
# Processed by: cddbd v1.5.2PL0 Copyright (c) Steve Scherf et al.
# Submitted via: ExactAudioCopy v0.99pb5
#
DISCID=9f0f140b
DTITLE=Göran Söllscher - Orpheus Chamber Orchestra - Joaquin Rodrigo -
DTITLE=Concierto De Aranjuez - Fanstasia para un gentilhombre
DYEAR=1990
DGENRE=Classical
TTITLE0=Joaquin Rodrigo - Concierto De Aranjuez - 1 Allegro Con Spirit
TTITLE0=o
TTITLE1=Joaquin Rodrigo - Concierto De Aranjuez - 2 Adagio
TTITLE2=Joaquin Rodrigo - Concierto De Aranjuez - 3 Allegro Gentile
TTITLE3=Joaquin Rodrigo - Fanstasia para un gentilhombre - 1 Villano Y
TTITLE3=Ricercar
TTITLE4=Joaquin Rodrigo - Fanstasia para un gentilhombre - 2 Espanolet
TTITLE4=a Y Fanfare De La Caballeria De Napoles
TTITLE5=Joaquin Rodrigo - Fanstasia para un gentilhombre - 3 Fanfare D
TTITLE5=e La Caballeria De Napoles - Allegretto
TTITLE6=Joaquin Rodrigo - Fanstasia para un gentilhombre - 4 Danza De 
TTITLE6=Las Hachas
TTITLE7=Joaquin Rodrigo - Fanstasia para un gentilhombre - 5 Canario
TTITLE8=Heitor Villa-Lobos - Concerto Pour Guitare Et Petit Orchestre 
TTITLE8=1 Allegro Preciso
TTITLE9=Heitor Villa-Lobos - Concerto Pour Guitare Et Petit Orchestre 
TTITLE9=2 Andantino E Andante
TTITLE10=Heitor Villa-Lobos - Concerto Pour Guitare Et Petit Orchestre
TTITLE10=3 Allegretto Non Troppo
EXTD=Rodrigo, Joaquin - Villa-Lobos, Heitor - Concierto De Aranjuez, Fa
EXTD=nstasia para un gentilhombre, Concerto - Sollscher
EXTT0=
EXTT1=
EXTT2=
EXTT3=
EXTT4=
EXTT5=
EXTT6=
EXTT7=
EXTT8=
EXTT9=
EXTT10=
PLAYORDER=
